<svg xmlns="http://www.w3.org/2000/svg" width="300" height="300" viewBox="0 0 300 300">
  <defs>
    <style>
      .neural-line { fill: none; stroke: #c9a227; stroke-width: 0.5; opacity: 0.18; }
      .neural-node { fill: #d4af37; opacity: 0.35; }
      .neural-node--hub { fill: #e5c76b; opacity: 0.5; }
    </style>
  </defs>
  <!-- Edges: random connections between nodes -->
  <line class="neural-line" x1="24" y1="42" x2="89" y2="31"/>
  <line class="neural-line" x1="89" y1="31" x2="156" y2="58"/>
  <line class="neural-line" x1="156" y1="58" x2="223" y2="44"/>
  <line class="neural-line" x1="223" y1="44" x2="271" y2="67"/>
  <line class="neural-line" x1="89" y1="31" x2="112" y2="98"/>
  <line class="neural-line" x1="112" y1="98" x2="67" y2="145"/>
  <line class="neural-line" x1="112" y1="98" x2="178" y2="122"/>
  <line class="neural-line" x1="178" y1="122" x2="245" y2="108"/>
  <line class="neural-line" x1="178" y1="122" x2="189" y2="189"/>
  <line class="neural-line" x1="67" y1="145" x2="34" y2="212"/>
  <line class="neural-line" x1="67" y1="145" x2="134" y2="198"/>
  <line class="neural-line" x1="134" y1="198" x2="189" y2="189"/>
  <line class="neural-line" x1="189" y1="189" x2="256" y2="175"/>
  <line class="neural-line" x1="256" y1="175" x2="278" y2="242"/>
  <line class="neural-line" x1="34" y1="212" x2="98" y2="256"/>
  <line class="neural-line" x1="98" y1="256" x2="165" y2="234"/>
  <line class="neural-line" x1="165" y1="234" x2="232" y2="258"/>
  <line class="neural-line" x1="232" y1="258" x2="278" y2="242"/>
  <line class="neural-line" x1="24" y1="42" x2="45" y2="112"/>
  <line class="neural-line" x1="45" y1="112" x2="112" y2="98"/>
  <line class="neural-line" x1="223" y1="44" x2="245" y2="108"/>
  <line class="neural-line" x1="271" y1="67" x2="256" y2="175"/>
  <line class="neural-line" x1="134" y1="198" x2="178" y2="122"/>
  <line class="neural-line" x1="156" y1="58" x2="178" y2="122"/>
  <line class="neural-line" x1="34" y1="212" x2="67" y2="145"/>
  <line class="neural-line" x1="98" y1="256" x2="134" y2="198"/>
  <line class="neural-line" x1="232" y1="258" x2="189" y2="189"/>
  <line class="neural-line" x1="45" y1="112" x2="67" y2="145"/>
  <line class="neural-line" x1="245" y1="108" x2="189" y2="189"/>
  <line class="neural-line" x1="165" y1="234" x2="189" y2="189"/>
  <line class="neural-line" x1="112" y1="98" x2="156" y2="58"/>
  <line class="neural-line" x1="256" y1="175" x2="223" y2="44"/>
  <line class="neural-line" x1="278" y1="242" x2="232" y2="258"/>
  <line class="neural-line" x1="98" y1="256" x2="165" y2="234"/>
  <line class="neural-line" x1="24" y1="42" x2="89" y2="31"/>
  <line class="neural-line" x1="271" y1="67" x2="256" y2="175"/>
  <!-- Extra scattered connections -->
  <line class="neural-line" x1="120" y1="45" x2="195" y2="88"/>
  <line class="neural-line" x1="195" y1="88" x2="210" y2="155"/>
  <line class="neural-line" x1="55" y1="178" x2="120" y2="165"/>
  <line class="neural-line" x1="200" y1="215" x2="255" y2="198"/>
  <!-- Nodes: neurons at varied positions -->
  <circle class="neural-node" cx="24" cy="42" r="2"/>
  <circle class="neural-node" cx="89" cy="31" r="2.2"/>
  <circle class="neural-node--hub" cx="156" cy="58" r="2.8"/>
  <circle class="neural-node" cx="223" cy="44" r="2"/>
  <circle class="neural-node" cx="271" cy="67" r="2"/>
  <circle class="neural-node" cx="45" cy="112" r="1.8"/>
  <circle class="neural-node--hub" cx="112" cy="98" r="2.6"/>
  <circle class="neural-node" cx="67" cy="145" r="1.8"/>
  <circle class="neural-node--hub" cx="178" cy="122" r="2.5"/>
  <circle class="neural-node" cx="245" cy="108" r="2"/>
  <circle class="neural-node" cx="34" cy="212" r="1.8"/>
  <circle class="neural-node" cx="134" cy="198" r="2"/>
  <circle class="neural-node--hub" cx="189" cy="189" r="2.6"/>
  <circle class="neural-node" cx="256" cy="175" r="2"/>
  <circle class="neural-node" cx="278" cy="242" r="1.8"/>
  <circle class="neural-node" cx="98" cy="256" r="2"/>
  <circle class="neural-node" cx="165" cy="234" r="1.8"/>
  <circle class="neural-node" cx="232" cy="258" r="2"/>
  <!-- Extra scattered nodes -->
  <circle class="neural-node" cx="120" cy="45" r="1.5"/>
  <circle class="neural-node" cx="195" cy="88" r="1.6"/>
  <circle class="neural-node" cx="210" cy="155" r="1.5"/>
  <circle class="neural-node" cx="55" cy="178" r="1.4"/>
  <circle class="neural-node" cx="120" cy="165" r="1.5"/>
  <circle class="neural-node" cx="200" cy="215" r="1.5"/>
  <circle class="neural-node" cx="255" cy="198" r="1.4"/>
</svg>
